<?xml version="1.0"?>
<svg xmlns="http://www.w3.org/2000/svg" id="Layer_1" data-name="Layer 1" viewBox="0 0 512 512" width="512" height="512"><title>Database Flow</title><path d="M202.625,211.525A342.7,342.7,0,0,1,166.5,213.4a334.477,334.477,0,0,1-45.135-2.967,6,6,0,1,0-1.627,11.889A346.443,346.443,0,0,0,166.5,225.4a354.7,354.7,0,0,0,37.4-1.94,6,6,0,0,0-1.271-11.933Z"/><path d="M241.925,192.734a16.332,16.332,0,1,0,16.332,16.332A16.35,16.35,0,0,0,241.925,192.734Zm0,20.664a4.332,4.332,0,1,1,4.332-4.332A4.336,4.336,0,0,1,241.925,213.4Z"/><path d="M119.739,310.144a346.5,346.5,0,0,0,46.761,3.078,354.7,354.7,0,0,0,37.4-1.941,6,6,0,1,0-1.271-11.932,342.7,342.7,0,0,1-36.125,1.873,334.425,334.425,0,0,1-45.136-2.968,6,6,0,0,0-1.625,11.89Z"/><path d="M241.925,313.222a16.332,16.332,0,1,0-16.332-16.332A16.35,16.35,0,0,0,241.925,313.222Zm0-20.664a4.332,4.332,0,1,1-4.332,4.332A4.337,4.337,0,0,1,241.925,292.558Z"/><path d="M202.625,387.172a342.511,342.511,0,0,1-36.125,1.874,334.54,334.54,0,0,1-45.135-2.968,6,6,0,1,0-1.627,11.889,346.5,346.5,0,0,0,46.762,3.079,354.515,354.515,0,0,0,37.4-1.942,6,6,0,1,0-1.271-11.932Z"/><path d="M241.925,368.381a16.333,16.333,0,1,0,16.332,16.332A16.35,16.35,0,0,0,241.925,368.381Zm0,20.665a4.333,4.333,0,1,1,4.332-4.333A4.337,4.337,0,0,1,241.925,389.046Z"/><path d="M425.207,101.946a26,26,0,1,0,0-12H346.5a6,6,0,0,0-6,6v154h-43V133.078c0-14.8-14.408-28.162-40.57-37.631-24.247-8.775-56.363-13.608-90.43-13.608s-66.183,4.833-90.43,13.608C49.908,104.916,35.5,118.28,35.5,133.078V390.815c0,14.805,14.406,28.171,40.565,37.637,24.242,8.771,56.359,13.6,90.435,13.6s66.193-4.831,90.435-13.6c26.159-9.466,40.565-22.832,40.565-37.637V261.946h43v154a6,6,0,0,0,6,6h78.707a26,26,0,1,0,0-12H352.5v-148h72.707a26,26,0,1,0,0-12H352.5v-148Zm25.293-20a14,14,0,1,1-14,14A14.016,14.016,0,0,1,450.5,81.946Zm-165,136.846c0,18.559-48.871,39.238-119,39.238s-119-20.679-119-39.238V155.244c6.814,5.83,16.423,11.067,28.57,15.464,24.247,8.774,56.363,13.607,90.43,13.607s66.183-4.833,90.43-13.607c12.147-4.4,21.756-9.634,28.57-15.464ZM47.5,302.72V240.966c6.813,5.83,16.42,11.067,28.565,15.462,24.242,8.771,56.359,13.6,90.435,13.6s66.193-4.831,90.435-13.6c12.145-4.4,21.752-9.632,28.565-15.462v63.54c0,18.559-48.871,39.238-119,39.238s-119-20.679-119-39.238Zm119-208.881c70.129,0,119,20.68,119,39.239s-48.871,39.237-119,39.237-119-20.678-119-39.237S96.371,93.839,166.5,93.839Zm0,336.215c-70.129,0-119-20.679-119-39.239V326.681c6.813,5.83,16.42,11.066,28.565,15.461,24.242,8.772,56.359,13.6,90.435,13.6s66.193-4.83,90.435-13.6c12.145-4.395,21.752-9.631,28.565-15.461v64.134C285.5,409.375,236.629,430.054,166.5,430.054Zm284-28.108a14,14,0,1,1-14,14A14.016,14.016,0,0,1,450.5,401.946Zm0-160a14,14,0,1,1-14,14A14.016,14.016,0,0,1,450.5,241.946Z"/></svg>
