<svg width="513" height="513" viewBox="0 0 513 513" fill="none" xmlns="http://www.w3.org/2000/svg">
<g clip-path="url(#clip0)">
<path d="M228.246 479.046C232.235 477.382 234.838 473.499 234.838 469.19L234.838 352.305L501.504 352.305C507.392 352.305 512.171 347.526 512.171 341.638L512.171 170.971C512.171 165.083 507.392 160.304 501.504 160.304L234.837 160.304L234.837 42.971C234.837 38.662 232.234 34.779 228.266 33.115C224.277 31.472 219.69 32.368 216.639 35.419L3.13501 248.219C1.13001 250.224 -0.000976562 252.934 -0.000976562 255.771C-0.000976562 258.608 1.13001 261.318 3.11401 263.323L216.618 476.742C219.67 479.793 224.256 480.71 228.246 479.046Z" fill="black"/>
</g>
<defs>
<clipPath id="clip0">
<rect width="512.171" height="512.171" fill="white" transform="translate(512.171) rotate(90)"/>
</clipPath>
</defs>
</svg>
