<?xml version="1.0" encoding="iso-8859-1"?>
<!-- Generator: Adobe Illustrator 19.0.0, SVG Export Plug-In . SVG Version: 6.00 Build 0)  -->
<svg version="1.1" id="Capa_1" xmlns="http://www.w3.org/2000/svg" xmlns:xlink="http://www.w3.org/1999/xlink" x="0px" y="0px"
	 viewBox="0 0 470 470" style="enable-background:new 0 0 470 470;" xml:space="preserve">
<g>
	<path d="M339.216,432.5V455H130.784V179.853c0.439-19.202,16.402-34.812,35.619-34.812h30.257c4.142,0,7.5-3.358,7.5-7.5
		c0-14.419,9.948-26.555,23.34-29.914v10.279c-7.904,3.03-13.54,10.677-13.54,19.634c0,11.602,9.438,21.04,21.04,21.04
		s21.04-9.438,21.04-21.04c0-8.957-5.636-16.604-13.54-19.634v-10.279c13.392,3.359,23.34,15.495,23.34,29.914
		c0,4.142,3.358,7.5,7.5,7.5h30.257c19.216,0,35.179,15.61,35.619,34.812V402.5c0,4.142,3.358,7.5,7.5,7.5
		c4.142,0,7.5-3.358,7.5-7.5V179.771c0-0.052,0-0.104-0.001-0.156c-0.277-13.303-5.664-25.765-15.167-35.09
		c-9.52-9.341-22.11-14.485-35.45-14.485h-23.371c-3.186-19.279-18.448-34.528-37.727-37.716V67.618l65.943,40.033
		c1.216,0.738,2.559,1.09,3.885,1.09c2.534,0,5.007-1.285,6.418-3.609c2.149-3.541,1.021-8.154-2.519-10.303l-54.409-33.031
		c5.692,0.001,30.473-0.001,31.629-0.066l-0.001,0.058c-0.073-0.001-0.145-0.003-0.188-0.006c0.263,0.019,0.527,0.032,0.796,0.032
		c17.042,0,30.907-13.865,30.907-30.907S311.098,0,294.055,0c-7.711,0-15.123,2.88-20.871,8.11c-0.03,0.027-0.059,0.054-0.089,0.082
		L242.5,36.949V7.5c0-4.142-3.358-7.5-7.5-7.5s-7.5,3.358-7.5,7.5v29.449L196.904,8.192c-0.03-0.028-0.059-0.055-0.089-0.082
		C191.068,2.88,183.656,0,175.945,0c-17.042,0-30.907,13.865-30.907,30.907s13.865,30.907,30.907,30.907
		c0.269,0,0.533-0.013,0.825-0.034c-0.072,0.005-0.144,0.008-0.216,0.009l-0.001-0.058c1.156,0.064,25.938,0.067,31.629,0.066
		l-54.409,33.031c-3.541,2.149-4.668,6.762-2.519,10.303c1.411,2.325,3.884,3.609,6.418,3.609c1.326,0,2.668-0.352,3.885-1.09
		L227.5,67.618v24.708c-19.279,3.188-34.541,18.437-37.727,37.716h-23.371c-13.34,0-25.93,5.144-35.45,14.485
		c-9.504,9.325-14.891,21.787-15.167,35.09c-0.001,0.052-0.001,0.104-0.001,0.156V462.5c0,4.142,3.358,7.5,7.5,7.5h223.433
		c4.142,0,7.5-3.358,7.5-7.5v-30c0-4.142-3.358-7.5-7.5-7.5C342.574,425,339.216,428.358,339.216,432.5z M235,143.581
		c-3.331,0-6.04-2.709-6.04-6.04s2.709-6.04,6.04-6.04s6.04,2.709,6.04,6.04S238.331,143.581,235,143.581z M283.321,19.167
		c2.974-2.688,6.784-4.167,10.734-4.167c8.771,0,15.907,7.136,15.907,15.907c0,8.715-7.044,15.816-15.738,15.906
		c-0.165-0.011-0.33-0.019-0.497-0.021c-0.047-0.001-0.094-0.001-0.141-0.001c-0.051,0-0.102,0-0.152,0.001
		c-0.398,0.003-31.588,0.005-39.509,0.004L283.321,19.167z M176.565,46.792c-0.096-0.001-0.194-0.001-0.292,0
		c-0.162,0.003-0.322,0.01-0.496,0.021c-8.695-0.09-15.74-7.19-15.74-15.906c0-8.771,7.136-15.907,15.907-15.907
		c3.951,0,7.761,1.479,10.734,4.167l29.396,27.628C208.154,46.797,176.964,46.795,176.565,46.792z"/>
	<path d="M210.335,184.206c-4.142,0-7.5,3.358-7.5,7.5v223.489c0,4.142,3.358,7.5,7.5,7.5s7.5-3.358,7.5-7.5V191.706
		C217.835,187.563,214.477,184.206,210.335,184.206z"/>
	<path d="M265.97,269.384l-16.712-25.936l16.712-25.935c2.243-3.482,1.24-8.124-2.242-10.367c-3.482-2.243-8.123-1.24-10.367,2.242
		l-19.33,29.998c-1.594,2.474-1.594,5.651,0,8.125l16.712,25.936l-16.712,25.937c-1.594,2.474-1.594,5.651,0,8.125l16.713,25.937
		l-16.713,25.94c-1.594,2.474-1.594,5.65,0,8.124l19.33,30.003c1.434,2.226,3.847,3.439,6.312,3.439
		c1.391,0,2.799-0.387,4.055-1.196c3.482-2.243,4.486-6.885,2.243-10.367l-16.713-25.941l16.713-25.941
		c1.594-2.474,1.594-5.651,0-8.125l-16.712-25.936l16.712-25.937C267.563,275.035,267.563,271.857,265.97,269.384z"/>
</g>
<g>
</g>
<g>
</g>
<g>
</g>
<g>
</g>
<g>
</g>
<g>
</g>
<g>
</g>
<g>
</g>
<g>
</g>
<g>
</g>
<g>
</g>
<g>
</g>
<g>
</g>
<g>
</g>
<g>
</g>
</svg>
