<svg width="50" height="50" viewBox="0 0 50 50" fill="none" xmlns="http://www.w3.org/2000/svg">
<path d="M25 0.000108703C24.856 -0.0019283 24.713 0.0246818 24.5793 0.0783922C24.4456 0.132103 24.324 0.211842 24.2214 0.312977C24.1188 0.414113 24.0374 0.534626 23.9818 0.667514C23.9262 0.800402 23.8976 0.943014 23.8976 1.08706C23.8976 1.23111 23.9262 1.37372 23.9818 1.50661C24.0374 1.6395 24.1188 1.76001 24.2214 1.86115C24.324 1.96228 24.4456 2.04202 24.5793 2.09573C24.713 2.14944 24.856 2.17605 25 2.17402C37.6191 2.17402 47.8261 12.381 47.8261 25.0001C47.8261 37.6191 37.6191 47.8261 25 47.8261C12.3809 47.8261 2.17391 37.6191 2.17391 25.0001C2.17391 17.7254 5.57686 11.2662 10.8696 7.08654V14.1305C10.8675 14.2745 10.8941 14.4176 10.9478 14.5512C11.0016 14.6849 11.0813 14.8065 11.1824 14.9091C11.2836 15.0117 11.4041 15.0931 11.537 15.1487C11.6699 15.2043 11.8125 15.2329 11.9565 15.2329C12.1006 15.2329 12.2432 15.2043 12.3761 15.1487C12.509 15.0931 12.6295 15.0117 12.7306 14.9091C12.8317 14.8065 12.9115 14.6849 12.9652 14.5512C13.0189 14.4176 13.0455 14.2745 13.0435 14.1305V4.9466V3.26097H2.17391C2.02988 3.25893 1.88688 3.28554 1.75321 3.33925C1.61955 3.39297 1.4979 3.4727 1.39532 3.57384C1.29275 3.67498 1.2113 3.79549 1.1557 3.92838C1.10011 4.06126 1.07148 4.20388 1.07148 4.34793C1.07148 4.49197 1.10011 4.63459 1.1557 4.76747C1.2113 4.90036 1.29275 5.02088 1.39532 5.12201C1.4979 5.22315 1.61955 5.30289 1.75321 5.3566C1.88688 5.41031 2.02988 5.43692 2.17391 5.43488H9.45567C3.69792 10.0162 0 17.0786 0 25.0001C0 38.794 11.206 50 25 50C38.794 50 50 38.794 50 25.0001C50 11.2061 38.794 0.000108703 25 0.000108703Z" fill="#398DC9"/>
</svg>
