<svg width="513" height="513" viewBox="0 0 513 513" fill="none" xmlns="http://www.w3.org/2000/svg">
<g clip-path="url(#clip0)">
<path d="M283.925 33.125C279.936 34.789 277.333 38.672 277.333 42.981L277.333 159.866H10.667C4.779 159.866 0 164.645 0 170.533L0 341.2C0 347.088 4.779 351.867 10.667 351.867H277.334V469.2C277.334 473.509 279.937 477.392 283.905 479.056C287.894 480.699 292.481 479.803 295.532 476.752L509.036 263.952C511.041 261.947 512.172 259.237 512.172 256.4C512.172 253.563 511.041 250.853 509.057 248.848L295.553 35.429C292.501 32.378 287.915 31.461 283.925 33.125Z" fill="black"/>
</g>
<defs>
<clipPath id="clip0">
<rect width="512.171" height="512.171" fill="white" transform="translate(0 512.171) rotate(-90)"/>
</clipPath>
</defs>
</svg>
