<svg width="611" height="548" viewBox="0 0 611 548" fill="none" xmlns="http://www.w3.org/2000/svg">
<path fill-rule="evenodd" clip-rule="evenodd" d="M224.849 389.144C321.499 389.144 399.849 310.793 399.849 214.144C399.849 117.494 321.499 39.1436 224.849 39.1436C128.199 39.1436 49.8488 117.494 49.8488 214.144C49.8488 310.793 128.199 389.144 224.849 389.144ZM225.083 366.601C307.971 366.601 375.165 298.414 375.165 214.301C375.165 130.187 307.971 62 225.083 62C142.194 62 75 130.187 75 214.301C75 298.414 142.194 366.601 225.083 366.601Z" fill="black"/>
<rect x="346.203" y="319" width="300" height="21.5" rx="10.75" transform="rotate(45 346.203 319)" fill="black"/>
</svg>
