<svg width="513" height="513" viewBox="0 0 513 513" fill="none" xmlns="http://www.w3.org/2000/svg">
<g clip-path="url(#clip0)">
<path d="M33.125 228.246C34.789 232.235 38.672 234.838 42.981 234.838L159.866 234.838L159.866 501.504C159.866 507.392 164.645 512.171 170.533 512.171L341.2 512.171C347.088 512.171 351.867 507.392 351.867 501.504L351.867 234.837L469.2 234.837C473.509 234.837 477.392 232.234 479.056 228.266C480.699 224.277 479.803 219.69 476.752 216.639L263.952 3.13501C261.947 1.13001 259.237 -0.000976562 256.4 -0.000976562C253.563 -0.000976562 250.853 1.13001 248.848 3.11401L35.429 216.618C32.378 219.67 31.461 224.256 33.125 228.246Z" fill="black"/>
</g>
<defs>
<clipPath id="clip0">
<rect width="512.171" height="512.171" fill="white" transform="translate(512.171 512.171) rotate(180)"/>
</clipPath>
</defs>
</svg>
